<?xml version="1.0" encoding="UTF-8"?>
<!DOCTYPE svg  PUBLIC '-//W3C//DTD SVG 1.1//EN'  'http://www.w3.org/Graphics/SVG/1.1/DTD/svg11.dtd'>
<svg clip-rule="evenodd" fill-rule="evenodd" stroke-linejoin="round" stroke-miterlimit="2" version="1.1" viewBox="0 0 100 100" xml:space="preserve" xmlns="http://www.w3.org/2000/svg" xmlns:serif="http://www.serif.com/">
    <g transform="translate(7.0828e-7 24.685)" serif:id="ink_ext_XXXXXX 1">
        <path d="m42.706-19.445c-21.734 4.784-37.366 24.222-37.406 46.516 0 26.175 21.499 47.714 47.625 47.714 2.991-0.022 5.973-0.327 8.906-0.91-8.654 0.995-19.704-18.479-24.75-43.618-4.943-24.695-2.456-46.677 5.625-49.702z" fill="#ffdd2d" fill-opacity=".59" fill-rule="nonzero"/>
    </g>
    <g transform="matrix(.17708 0 0 -.17703 -56.87 171.85)">
        
            
                
                    
                        <clipPath id="a">
                            <path d="m693.52 490.38c37.746 76.773 26.25 134.04-34.5 171.78-24.297-19.754-49.668-11.168-81.563 20.555-58.281 57.961-66.211 126.66-18.562 211.52-72.04-71.355-97.25-144.14-68.305-215.52 9.113-22.461 51.441-36.305 113.4-62.348 71.434-30.031 98.641-77.649 89.528-126zm-101.44 70.594c51.492-19.075 79.762-50.332 90.836-79.559 2.981 55.074-24.246 100.88-87.527 122.02-97.336 32.507-143.14 68.375-132.62 123.34-28.887-60.122-19.649-100.72 25.867-125.34 32.301-17.461 67.593-27.168 103.44-40.449zm-87.848-33.848c71.739-0.195 128.87-18.762 171.4-55.676-28.496 53.469-83.024 81.731-162.46 93.496-30.465 4.516-48.906 25.071-57.02 53.043-1.718-56.176 14.305-86.469 48.082-90.863zm110.08-106.11c65.652-1.914 97.703 25.5 96.152 82.231-9.621-36.606-41.672-64.016-96.152-82.231zm142.6 60.93c96.074 117.43 124.38 227.07 84.875 328.9 1.23-72.25-24.414-118.89-76.926-139.9 16.887 22.641 23.078 44.746 18.567 66.313-10.274-18.223-32.383-31.036-66.329-38.45 9.024-15.632 19.2-30.457 28.516-45.75 30.047-49.328 33.133-106.78 11.297-171.11zm121.91 269.58c-25.711 111.9-116.61 197.1-229.94 215.52-113.33 18.422-226.53-33.606-286.36-131.6-59.832-98.004-54.371-222.46 13.797-314.85 68.172-92.383 185.49-134.31 296.77-106.04-142.94-28.75-282.75 61.667-315.19 203.82-32.434 142.15 54.32 284.26 195.59 320.37 141.26 36.109 285.57-46.93 325.33-187.22zm-218.5-58.195c-4.18-12.098-10.488-20.375-18.906-24.84 2.851 20.242-3.469 42.324-9.942 68.961-3.457 14.199 4.747 28.32 15.243 41.117-22.41-0.605-35.34 7.348-38.789 23.871 13.496-9.75 26.593-10.195 40.781-4.972 32.93 12.105 53.586 8.765 60.676-6.301 30.066 0.367 45.867-6.484 47.41-20.559-35.242 10.133-56.649-3.09-60.664-40.121-2.196-20.203 12.98-45.492 36.465-79.574 34.211-49.652 31.886-108.83-1.317-173.75 9.278 69.355 5.86 124.28-21.222 156.49-21.122 25.129-41.004 41.832-49.735 59.68z"/>
                        </clipPath>
                        <g clip-path="url(#a)">
                            <path d="m302.7 385.81v21.14h578.59v-21.14h-578.59" fill="#971a1f"/>
                            <path d="m302.7 405.85v3.308h578.59v-3.308h-578.59" fill="#971a1f"/>
                            <path d="m302.7 408.06v3.308h578.59v-3.308h-578.59" fill="#981a1f"/>
                            <path d="m302.7 410.27v3.308h578.59v-3.308h-578.59" fill="#981a1f"/>
                            <path d="m302.7 412.47v3.308h578.59v-3.308h-578.59" fill="#991a1f"/>
                            <path d="m302.7 414.68v3.308h578.59v-3.308h-578.59" fill="#991a1f"/>
                            <path d="m302.7 416.89v3.308h578.59v-3.308h-578.59" fill="#991a1f"/>
                            <path d="m302.7 419.09v3.308h578.59v-3.308h-578.59" fill="#9a1a1f"/>
                            <path d="m302.7 421.3v3.301h578.59v-3.301h-578.59" fill="#9a1a1f"/>
                            <path d="m302.7 423.51v3.308h578.59v-3.308h-578.59" fill="#9b1a20"/>
                            <path d="m302.7 425.72v3.301h578.59v-3.301h-578.59" fill="#9b1a20"/>
                            <path d="m302.7 427.91v3.32h578.59v-3.32h-578.59" fill="#9b1a20"/>
                            <path d="m302.7 430.12v3.313h578.59v-3.313h-578.59" fill="#9c1a20"/>
                            <path d="m302.7 432.32v3.313h578.59v-3.313h-578.59" fill="#9c1a20"/>
                            <path d="m302.7 434.53v3.313h578.59v-3.313h-578.59" fill="#9c1b20"/>
                            <path d="m302.7 436.74v3.313h578.59v-3.313h-578.59" fill="#9c1b20"/>
                            <path d="m302.7 438.94v3.313h578.59v-3.313h-578.59" fill="#9c1b20"/>
                            <path d="m302.7 441.15v3.313h578.59v-3.313h-578.59" fill="#9d1b20"/>
                            <path d="m302.7 443.36v3.313h578.59v-3.313h-578.59" fill="#9d1b20"/>
                            <path d="m302.7 445.57v3.313h578.59v-3.313h-578.59" fill="#9e1b20"/>
                            <path d="m302.7 447.77v3.313h578.59v-3.313h-578.59" fill="#9e1b20"/>
                            <path d="m302.7 449.98v3.313h578.59v-3.313h-578.59" fill="#9e1b20"/>
                            <path d="m302.7 452.19v3.308h578.59v-3.308h-578.59" fill="#9f1b20"/>
                            <path d="m302.7 454.4v3.308h578.59v-3.308h-578.59" fill="#9f1b20"/>
                            <path d="m302.7 456.6v3.308h578.59v-3.308h-578.59" fill="#a01b21"/>
                            <path d="m302.7 458.81v3.308h578.59v-3.308h-578.59" fill="#a01b21"/>
                            <path d="m302.7 461.02v3.308h578.59v-3.308h-578.59" fill="#a01b21"/>
                            <path d="m302.7 463.22v3.308h578.59v-3.308h-578.59" fill="#a11b21"/>
                            <path d="m302.7 465.43v3.308h578.59v-3.308h-578.59" fill="#a11b21"/>
                            <path d="m302.7 467.63v3.309h578.59v-3.309h-578.59" fill="#a21b21"/>
                            <path d="m302.7 469.84v3.301h578.59v-3.301h-578.59" fill="#a21b21"/>
                            <path d="m302.7 472.04v3.309h578.59v-3.309h-578.59" fill="#a21b21"/>
                            <path d="m302.7 474.26v3.301h578.59v-3.301h-578.59" fill="#a31c21"/>
                            <path d="m302.7 476.45v3.313h578.59v-3.313h-578.59" fill="#a31c21"/>
                            <path d="m302.7 478.66v3.313h578.59v-3.313h-578.59" fill="#a41c21"/>
                            <path d="m302.7 480.87v3.313h578.59v-3.313h-578.59" fill="#a41c21"/>
                            <path d="m302.7 483.07v3.313h578.59v-3.313h-578.59" fill="#a41c21"/>
                            <path d="m302.7 485.28v3.313h578.59v-3.313h-578.59" fill="#a51c21"/>
                            <path d="m302.7 487.49v3.313h578.59v-3.313h-578.59" fill="#a51c21"/>
                            <path d="m302.7 489.7v3.313h578.59v-3.313h-578.59" fill="#a71c22"/>
                            <path d="m302.7 491.9v3.313h578.59v-3.313h-578.59" fill="#a71c22"/>
                            <path d="m302.7 494.11v3.313h578.59v-3.313h-578.59" fill="#a71c22"/>
                            <path d="m302.7 496.32v3.313h578.59v-3.313h-578.59" fill="#a81c22"/>
                            <path d="m302.7 498.52v3.313h578.59v-3.313h-578.59" fill="#a81c22"/>
                            <path d="m302.7 500.73v3.313h578.59v-3.313h-578.59" fill="#a91c22"/>
                            <path d="m302.7 502.94v3.3h578.59v-3.3h-578.59" fill="#a91c22"/>
                            <path d="m302.7 505.14v3.312h578.59v-3.312h-578.59" fill="#a91c22"/>
                            <path d="m302.7 507.36v3.297h578.59v-3.297h-578.59" fill="#aa1c22"/>
                            <path d="m302.7 509.56v3.308h578.59v-3.308h-578.59" fill="#aa1c22"/>
                            <path d="m302.7 511.77v3.296h578.59v-3.308l-578.59 0.012" fill="#ab1c22"/>
                            <path d="m302.7 513.96v3.308h578.59v-3.308h-578.59" fill="#ab1c22"/>
                            <path d="m302.7 516.17v3.308h578.59v-3.308h-578.59" fill="#ab1c22"/>
                            <path d="m302.7 518.38v3.309h578.59v-3.309h-578.59" fill="#ac1c22"/>
                            <path d="m302.7 520.59v3.309h578.59v-3.309h-578.59" fill="#ac1c22"/>
                            <path d="m302.7 522.79v3.312h578.59v-3.312h-578.59" fill="#ad1d22"/>
                            <path d="m302.7 525v3.313h578.59v-3.313h-578.59" fill="#ad1d22"/>
                            <path d="m302.7 527.21v3.313h578.59v-3.313h-578.59" fill="#ad1d22"/>
                            <path d="m302.7 529.41v3.313h578.59v-3.313h-578.59" fill="#ae1d23"/>
                            <path d="m302.7 531.62v3.313h578.59v-3.313h-578.59" fill="#ae1d23"/>
                            <path d="m302.7 533.83v3.313h578.59v-3.313h-578.59" fill="#af1d23"/>
                            <path d="m302.7 536.04v3.313h578.59v-3.313h-578.59" fill="#af1d23"/>
                            <path d="m302.7 538.24v3.313h578.59v-3.313h-578.59" fill="#af1d23"/>
                            <path d="m302.7 540.45v3.313h578.59v-3.313h-578.59" fill="#b01d23"/>
                            <path d="m302.7 542.66v3.313h578.59v-3.313h-578.59" fill="#b01d23"/>
                            <path d="m302.7 544.86v3.313h578.59v-3.313h-578.59" fill="#b11e23"/>
                            <path d="m302.7 547.07v3.313h578.59v-3.313h-578.59" fill="#b11e23"/>
                            <path d="m302.7 549.27v3.308h578.59v-3.308h-578.59" fill="#b11e23"/>
                            <path d="m302.7 551.48v3.301h578.59v-3.301h-578.59" fill="#b31e23"/>
                            <path d="m302.7 553.68v3.308h578.59v-3.308h-578.59" fill="#b31e23"/>
                            <path d="m302.7 555.9v3.301h578.59v-3.301h-578.59" fill="#b41f23"/>
                            <path d="m302.7 558.1v3.308h578.59v-3.308h-578.59" fill="#b41f23"/>
                            <path d="m302.7 560.3v3.308h578.59v-3.308h-578.59" fill="#b41f23"/>
                            <path d="m302.7 562.51v3.308h578.59v-3.308h-578.59" fill="#b51f23"/>
                            <path d="m302.7 564.72v3.308h578.59v-3.308h-578.59" fill="#b51f23"/>
                            <path d="m302.7 566.93v3.308h578.59v-3.308h-578.59" fill="#b62023"/>
                            <path d="m302.7 569.13v3.308h578.59v-3.308h-578.59" fill="#b62023"/>
                            <path d="m302.7 571.34v3.308h578.59v-3.308h-578.59" fill="#b62023"/>
                            <path d="m302.7 573.55v3.308h578.59v-3.308h-578.59" fill="#b72023"/>
                            <path d="m302.7 575.75v3.309h578.59v-3.309h-578.59" fill="#b72023"/>
                            <path d="m302.7 577.96v3.309h578.59v-3.309h-578.59" fill="#b82023"/>
                            <path d="m302.7 580.17v3.309h578.59v-3.309h-578.59" fill="#b82023"/>
                            <path d="m302.7 582.37v3.313h578.59v-3.313h-578.59" fill="#b82023"/>
                            <path d="m302.7 584.58v3.313h578.59v-3.313h-578.59" fill="#b92123"/>
                            <path d="m302.7 586.78v3.313h578.59v-3.313h-578.59" fill="#b92123"/>
                            <path d="m302.7 588.99v3.305h578.59v-3.305h-578.59" fill="#ba2123"/>
                            <path d="m302.7 591.2v3.313h578.59v-3.313h-578.59" fill="#ba2123"/>
                            <path d="m302.7 593.41v3.309h578.59v-3.309h-578.59" fill="#ba2123"/>
                            <path d="m302.7 595.61v3.313h578.59v-3.313h-578.59" fill="#bb2223"/>
                            <path d="m302.7 597.82v3.313h578.59v-3.313h-578.59" fill="#bb2223"/>
                            <path d="m302.7 600.02v3.305h578.59v-3.305h-578.59" fill="#bc2323"/>
                            <path d="m302.7 602.23v3.316h578.59v-3.316h-578.59" fill="#bc2323"/>
                            <path d="m302.7 604.44v3.304h578.59v-3.304h-578.59" fill="#bc2323"/>
                            <path d="m302.7 606.64v3.308h578.59v-3.308h-578.59" fill="#bd2323"/>
                            <path d="m302.7 608.85v3.308h578.59v-3.308h-578.59" fill="#bd2323"/>
                            <path d="m302.7 611.06v3.308h578.59v-3.308h-578.59" fill="#be2423"/>
                            <path d="m302.7 613.26v3.308h578.59v-3.308h-578.59" fill="#be2423"/>
                            <path d="m302.7 615.47v3.308h578.59v-3.308h-578.59" fill="#be2423"/>
                            <path d="m302.7 617.68v3.308h578.59v-3.308h-578.59" fill="#bf2423"/>
                            <path d="m302.7 619.88v3.312h578.59v-3.312h-578.59" fill="#bf2423"/>
                            <path d="m302.7 622.09v3.305h578.59v-3.305h-578.59" fill="#c12523"/>
                            <path d="m302.7 624.29v3.312h578.59v-3.312h-578.59" fill="#c12523"/>
                            <path d="m302.7 626.5v3.305h578.59v-3.305h-578.59" fill="#c12523"/>
                            <path d="m302.7 628.71v3.309h578.59v-3.309h-578.59" fill="#c22524"/>
                            <path d="m302.7 630.91v3.309h578.59v-3.309h-578.59" fill="#c22524"/>
                            <path d="m302.7 633.12v3.309h578.59v-3.309h-578.59" fill="#c32623"/>
                            <path d="m302.7 635.33v3.309h578.59v-3.309h-578.59" fill="#c32623"/>
                            <path d="m302.7 637.54v3.309h578.59v-3.309h-578.59" fill="#c32623"/>
                            <path d="m302.7 639.74v3.309h578.59v-3.309h-578.59" fill="#c42724"/>
                            <path d="m302.7 641.94v3.313h578.59v-3.313h-578.59" fill="#c42724"/>
                            <path d="m302.7 644.16v3.305h578.59v-3.305h-578.59" fill="#c52723"/>
                            <path d="m302.7 646.36v3.313h578.59v-3.313h-578.59" fill="#c52723"/>
                            <path d="m302.7 648.57v3.305h578.59v-3.305h-578.59" fill="#c52723"/>
                            <path d="m302.7 650.77v3.312h578.59v-3.312h-578.59" fill="#c62824"/>
                            <path d="m302.7 652.98v3.309h578.59v-3.309h-578.59" fill="#c62824"/>
                            <path d="m302.7 655.19v3.308h578.59v-3.308h-578.59" fill="#c72923"/>
                            <path d="m302.7 657.4v3.308h578.59v-3.308h-578.59" fill="#c72923"/>
                            <path d="m302.7 659.6v3.304h578.59v-3.304h-578.59" fill="#c72923"/>
                            <path d="m302.7 661.81v3.308h578.59v-3.308h-578.59" fill="#c82a23"/>
                            <path d="m302.7 664.02v3.304h578.59v-3.304h-578.59" fill="#c82a23"/>
                            <path d="m302.7 666.22v3.316h578.59v-3.316h-578.59" fill="#c92a23"/>
                            <path d="m302.7 668.42v3.312h578.59v-3.312h-578.59" fill="#c92a23"/>
                            <path d="m302.7 670.63v3.312h578.59v-3.312h-578.59" fill="#c92a23"/>
                            <path d="m302.7 672.84v3.312h578.59v-3.312h-578.59" fill="#ca2b23"/>
                            <path d="m302.7 675.04v3.312h578.59v-3.312h-578.59" fill="#ca2b23"/>
                            <path d="m302.7 677.25v3.313h578.59v-3.313h-578.59" fill="#cb2c23"/>
                            <path d="m302.7 679.46v3.313h578.59v-3.313h-578.59" fill="#cb2c23"/>
                            <path d="m302.7 681.66v3.309h578.59v-3.309h-578.59" fill="#cb2c23"/>
                            <path d="m302.7 683.87v3.309h578.59v-3.309h-578.59" fill="#cc2c23"/>
                            <path d="m302.7 686.08v3.309h578.59v-3.309h-578.59" fill="#cc2c23"/>
                            <path d="m302.7 688.28v3.313h578.59v-3.313h-578.59" fill="#cd2d23"/>
                            <path d="m302.7 690.49v3.313h578.59v-3.313h-578.59" fill="#cd2d23"/>
                            <path d="m302.7 692.7v3.313h578.59v-3.313h-578.59" fill="#cd2d23"/>
                            <path d="m302.7 694.9v3.313h578.59v-3.313h-578.59" fill="#ce2e23"/>
                            <path d="m302.7 697.11v3.313h578.59v-3.313h-578.59" fill="#ce2e23"/>
                            <path d="m302.7 699.32v3.313h578.59v-3.313h-578.59" fill="#cf2e23"/>
                            <path d="m302.7 701.52v3.313h578.59v-3.313h-578.59" fill="#cf2e23"/>
                            <path d="m302.7 703.73v3.305h578.59v-3.305h-578.59" fill="#cf2e23"/>
                            <path d="m302.7 705.93v3.308h578.59v-3.308h-578.59" fill="#d02f23"/>
                            <path d="m302.7 708.14v3.304h578.59v-3.304h-578.59" fill="#d02f23"/>
                            <path d="m302.7 710.35v3.308h578.59v-3.308h-578.59" fill="#d23023"/>
                            <path d="m302.7 712.56v3.308h578.59v-3.308h-578.59" fill="#d23023"/>
                            <path d="m302.7 714.76v3.308h578.59v-3.308h-578.59" fill="#d23023"/>
                            <path d="m302.7 716.97v3.308h578.59v-3.308h-578.59" fill="#d33023"/>
                            <path d="m302.7 719.18v3.308h578.59v-3.308h-578.59" fill="#d33023"/>
                            <path d="m302.7 721.38v3.308h578.59v-3.308h-578.59" fill="#d43123"/>
                            <path d="m302.7 723.59v3.305h578.59v-3.305h-578.59" fill="#d43123"/>
                            <path d="m302.7 725.8v3.308h578.59v-3.308h-578.59" fill="#d43123"/>
                            <path d="m302.7 728v3.309h578.59v-3.309h-578.59" fill="#d53223"/>
                            <path d="m302.7 730.21v3.305h578.59v-3.305h-578.59" fill="#d53223"/>
                            <path d="m302.7 732.41v3.313h578.59v-3.313h-578.59" fill="#d63222"/>
                            <path d="m302.7 734.62v3.313h578.59v-3.313h-578.59" fill="#d63222"/>
                            <path d="m302.7 736.82v3.313h578.59v-3.313h-578.59" fill="#d63222"/>
                            <path d="m302.7 739.03v3.313h578.59v-3.313h-578.59" fill="#d63322"/>
                            <path d="m302.7 741.24v3.309h578.59v-3.309h-578.59" fill="#d63322"/>
                            <path d="m302.7 743.44v3.313h578.59v-3.313h-578.59" fill="#d73422"/>
                            <path d="m302.7 745.65v3.309h578.59v-3.309h-578.59" fill="#d73422"/>
                            <path d="m302.7 747.86v3.313h578.59v-3.313h-578.59" fill="#d73422"/>
                            <path d="m302.7 750.06v3.312h578.59v-3.312h-578.59" fill="#d83522"/>
                            <path d="m302.7 752.27v3.312h578.59v-3.312h-578.59" fill="#d83522"/>
                            <path d="m302.7 754.48v3.312h578.59v-3.312h-578.59" fill="#d93522"/>
                            <path d="m302.7 756.68v3.312h578.59v-3.312h-578.59" fill="#d93522"/>
                            <path d="m302.7 758.89v3.312h578.59v-3.312h-578.59" fill="#d93522"/>
                            <path d="m302.7 761.1v3.312h578.59v-3.312h-578.59" fill="#da3622"/>
                            <path d="m302.7 763.3v3.304h578.59v-3.304h-578.59" fill="#da3622"/>
                            <path d="m302.7 765.51v3.316h578.59v-3.316h-578.59" fill="#db3722"/>
                            <path d="m302.7 767.72v3.304h578.59v-3.304h-578.59" fill="#db3722"/>
                            <path d="m302.7 769.92v3.316h578.59v-3.316h-578.59" fill="#db3722"/>
                            <path d="m302.7 772.13v3.309h578.59v-3.309h-578.59" fill="#dc3721"/>
                            <path d="m302.7 774.34v3.309h578.59v-3.309h-578.59" fill="#dc3721"/>
                            <path d="m302.7 776.54v3.312h578.59v-3.312h-578.59" fill="#dd3821"/>
                            <path d="m302.7 778.75v3.313h578.59v-3.313h-578.59" fill="#dd3821"/>
                            <path d="m302.7 780.96v3.313h578.59v-3.313h-578.59" fill="#dd3821"/>
                            <path d="m302.7 783.16v3.305h578.59v-3.305h-578.59" fill="#de3921"/>
                            <path d="m302.7 785.37v3.305h578.59v-3.305h-578.59" fill="#de3921"/>
                            <path d="m302.7 787.57v3.309h578.59v-3.309h-578.59" fill="#df3a21"/>
                            <path d="m302.7 789.78v3.305h578.59v-3.305h-578.59" fill="#df3a21"/>
                            <path d="m302.7 791.99v3.309h578.59v-3.309h-578.59" fill="#df3a21"/>
                            <path d="m302.7 794.2v3.309h578.59v-3.309h-578.59" fill="#e03a21"/>
                            <path d="m302.7 796.4v3.309h578.59v-3.309h-578.59" fill="#e03a21"/>
                            <path d="m302.7 798.61v3.309h578.59v-3.309h-578.59" fill="#e13b21"/>
                            <path d="m302.7 800.82v3.309h578.59v-3.309h-578.59" fill="#e13b21"/>
                            <path d="m302.7 803.02v3.309h578.59v-3.309h-578.59" fill="#e13b21"/>
                            <path d="m302.7 805.23v3.305h578.59v-3.305h-578.59" fill="#e23c20"/>
                            <path d="m302.7 807.44v3.308h578.59v-3.308h-578.59" fill="#e23c20"/>
                            <path d="m302.7 809.64v3.308h578.59v-3.308h-578.59" fill="#e33c20"/>
                            <path d="m302.7 811.85v3.308h578.59v-3.308h-578.59" fill="#e33c20"/>
                            <path d="m302.7 814.06v3.308h578.59v-3.308h-578.59" fill="#e33c20"/>
                            <path d="m302.7 816.26v3.308h578.59v-3.308h-578.59" fill="#e43d20"/>
                            <path d="m302.7 818.47v3.308h578.59v-3.308h-578.59" fill="#e43d20"/>
                            <path d="m302.7 820.68v3.308h578.59v-3.308h-578.59" fill="#e53e20"/>
                            <path d="m302.7 822.88v3.308h578.59v-3.308h-578.59" fill="#e53e20"/>
                            <path d="m302.7 825.09v3.308h578.59v-3.308h-578.59" fill="#e53e20"/>
                            <path d="m302.7 827.3v3.305h578.59v-3.305h-578.59" fill="#e63e1f"/>
                            <path d="m302.7 829.5v3.305h578.59v-3.305h-578.59" fill="#e63e1f"/>
                            <path d="m302.7 831.7v3.313h578.59v-3.313h-578.59" fill="#e73f1f"/>
                            <path d="m302.7 833.91v3.313h578.59v-3.313h-578.59" fill="#e73f1f"/>
                            <path d="m302.7 836.12v3.313h578.59v-3.313h-578.59" fill="#e73f1f"/>
                            <path d="m302.7 838.32v3.313h578.59v-3.313h-578.59" fill="#e8401f"/>
                            <path d="m302.7 840.53v3.313h578.59v-3.313h-578.59" fill="#e8401f"/>
                            <path d="m302.7 842.74v3.313h578.59v-3.313h-578.59" fill="#e9401f"/>
                            <path d="m302.7 844.94v3.309h578.59v-3.309h-578.59" fill="#e9401f"/>
                            <path d="m302.7 847.15v3.313h578.59v-3.313h-578.59" fill="#e9401f"/>
                            <path d="m302.7 849.36v3.309h578.59v-3.309h-578.59" fill="#e9411f"/>
                            <path d="m302.7 851.56v3.312h578.59v-3.312h-578.59" fill="#e9411f"/>
                            <path d="m302.7 853.77v3.308h578.59v-3.308h-578.59" fill="#ea421e"/>
                            <path d="m302.7 855.98v3.308h578.59v-3.308h-578.59" fill="#ea421e"/>
                            <path d="m302.7 858.18v3.308h578.59v-3.308h-578.59" fill="#ea421e"/>
                            <path d="m302.7 860.39v3.308h578.59v-3.308h-578.59" fill="#eb431e"/>
                            <path d="m302.7 862.6v3.308h578.59v-3.308h-578.59" fill="#eb431e"/>
                            <path d="m302.7 864.8v3.312h578.59v-3.312h-578.59" fill="#ec441e"/>
                            <path d="m302.7 867.01v3.308h578.59v-3.308h-578.59" fill="#ec441e"/>
                            <path d="m302.7 869.22v3.312h578.59v-3.312h-578.59" fill="#ec441e"/>
                            <path d="m302.7 871.43v3.304h578.59v-3.304h-578.59" fill="#ed451e"/>
                            <path d="m302.7 873.63v3.309h578.59v-3.309h-578.59" fill="#ed451e"/>
                            <path d="m302.7 875.84v3.309h578.59v-3.309h-578.59" fill="#ee451d"/>
                            <path d="m302.7 878.04v3.309h578.59v-3.309h-578.59" fill="#ee451d"/>
                            <path d="m302.7 880.25v3.309h578.59v-3.309h-578.59" fill="#ee451d"/>
                            <path d="m302.7 882.46v3.305h578.59v-3.305h-578.59" fill="#ef461d"/>
                            <path d="m302.7 884.66v3.309h578.59v-3.309h-578.59" fill="#ef461d"/>
                            <path d="m302.7 886.87v3.305h578.59v-3.305h-578.59" fill="#f0471d"/>
                            <path d="m302.7 889.08v3.309h578.59v-3.309h-578.59" fill="#f0471d"/>
                            <path d="m302.7 891.28v3.313h578.59v-3.313h-578.59" fill="#f0471d"/>
                            <path d="m302.7 893.49v3.305h578.59v-3.305h-578.59" fill="#f1481d"/>
                            <path d="m302.7 895.69v3.313h578.59v-3.313h-578.59" fill="#f1481d"/>
                            <path d="m302.7 897.9v3.313h578.59v-3.313h-578.59" fill="#f1491c"/>
                            <path d="m302.7 900.1v3.313h578.59v-3.313h-578.59" fill="#f1491c"/>
                            <path d="m302.7 902.31v3.312h578.59v-3.312h-578.59" fill="#f1491c"/>
                            <path d="m302.7 904.52v3.308h578.59v-3.308h-578.59" fill="#f14a1c"/>
                            <path d="m302.7 906.73v3.309h578.59v-3.309h-578.59" fill="#f14a1c"/>
                            <path d="m302.7 908.94v3.304h578.59v-3.304h-578.59" fill="#f14b1c"/>
                            <path d="m302.7 911.14v3.316h578.59v-3.316h-578.59" fill="#f14b1c"/>
                            <path d="m302.7 913.34v3.312h578.59v-3.312h-578.59" fill="#f14b1c"/>
                            <path d="m302.7 915.55v3.312h578.59v-3.312h-578.59" fill="#f14b1c"/>
                            <path d="m302.7 917.76v3.312h578.59v-3.312h-578.59" fill="#f14b1c"/>
                            <path d="m302.7 919.96v3.312h578.59v-3.312h-578.59" fill="#f14c1c"/>
                            <path d="m302.7 922.17v3.312h578.59v-3.312h-578.59" fill="#f14c1c"/>
                            <path d="m302.7 924.38v3.312h578.59v-3.312h-578.59" fill="#f14c1c"/>
                            <path d="m302.7 926.59v3.309h578.59v-3.309h-578.59" fill="#f14d1c"/>
                            <path d="m302.7 928.79v3.313h578.59v-3.313h-578.59" fill="#f14d1c"/>
                            <path d="m302.7 931v3.309h578.59v-3.309h-578.59" fill="#f14e1c"/>
                            <path d="m302.7 933.2v3.313h578.59v-3.313h-578.59" fill="#f14e1c"/>
                            <path d="m302.7 935.41v3.313h578.59v-3.313h-578.59" fill="#f14e1c"/>
                            <path d="m302.7 937.62v3.313h578.59v-3.313h-578.59" fill="#f14f1b"/>
                            <path d="m302.7 939.82v3.313h578.59v-3.313h-578.59" fill="#f14f1b"/>
                            <path d="m302.7 942.03v3.313h578.59v-3.313h-578.59" fill="#f14f1b"/>
                            <path d="m302.7 944.24v3.313h578.59v-3.313h-578.59" fill="#f14f1b"/>
                            <path d="m302.7 946.44v3.313h578.59v-3.313h-578.59" fill="#f14f1b"/>
                            <path d="m302.7 948.65v3.313h578.59v-3.313h-578.59" fill="#f1501b"/>
                            <path d="m302.7 950.86v3.309h578.59v-3.309h-578.59" fill="#f1501b"/>
                            <path d="m302.7 953.07v3.305h578.59v-3.305h-578.59" fill="#f1511b"/>
                            <path d="m302.7 955.27v3.308h578.59v-3.308h-578.59" fill="#f1511b"/>
                            <path d="m302.7 957.48v3.308h578.59v-3.308h-578.59" fill="#f1511b"/>
                            <path d="m302.7 959.68v3.308h578.59v-3.308h-578.59" fill="#f2521b"/>
                            <path d="m302.7 961.89v3.308h578.59v-3.308h-578.59" fill="#f2521b"/>
                            <path d="m302.7 964.1v3.308h578.59v-3.308h-578.59" fill="#f2531b"/>
                            <path d="m302.7 966.3v19.164h578.59v-19.164h-578.59" fill="#f2531b"/>
                        </g>
                    
                
            
        
    </g>
</svg>
