<svg xmlns="http://www.w3.org/2000/svg" viewBox="0 0 32 32" width="32" height="32">
  <style>
    .petal { fill: #9d2235; }
    .heart { fill: #d99a1f; }
    @media (prefers-color-scheme: dark) {
      .petal { fill: #ff8097; }
      .heart { fill: #ffd166; }
    }
  </style>
  <g>
    <ellipse class="petal" cx="16" cy="5.5" rx="2.2" ry="4.2"/>
    <ellipse class="petal" cx="16" cy="5.5" rx="2.2" ry="4.2" transform="rotate(45 16 16)"/>
    <ellipse class="petal" cx="16" cy="5.5" rx="2.2" ry="4.2" transform="rotate(90 16 16)"/>
    <ellipse class="petal" cx="16" cy="5.5" rx="2.2" ry="4.2" transform="rotate(135 16 16)"/>
    <ellipse class="petal" cx="16" cy="5.5" rx="2.2" ry="4.2" transform="rotate(180 16 16)"/>
    <ellipse class="petal" cx="16" cy="5.5" rx="2.2" ry="4.2" transform="rotate(225 16 16)"/>
    <ellipse class="petal" cx="16" cy="5.5" rx="2.2" ry="4.2" transform="rotate(270 16 16)"/>
    <ellipse class="petal" cx="16" cy="5.5" rx="2.2" ry="4.2" transform="rotate(315 16 16)"/>
    <ellipse class="heart" cx="16" cy="7.5" rx="1.5" ry="2.8" transform="rotate(22.5 16 16)"/>
    <ellipse class="heart" cx="16" cy="7.5" rx="1.5" ry="2.8" transform="rotate(67.5 16 16)"/>
    <ellipse class="heart" cx="16" cy="7.5" rx="1.5" ry="2.8" transform="rotate(112.5 16 16)"/>
    <ellipse class="heart" cx="16" cy="7.5" rx="1.5" ry="2.8" transform="rotate(157.5 16 16)"/>
    <ellipse class="heart" cx="16" cy="7.5" rx="1.5" ry="2.8" transform="rotate(202.5 16 16)"/>
    <ellipse class="heart" cx="16" cy="7.5" rx="1.5" ry="2.8" transform="rotate(247.5 16 16)"/>
    <ellipse class="heart" cx="16" cy="7.5" rx="1.5" ry="2.8" transform="rotate(292.5 16 16)"/>
    <ellipse class="heart" cx="16" cy="7.5" rx="1.5" ry="2.8" transform="rotate(337.5 16 16)"/>
    <circle class="heart" cx="16" cy="16" r="4.5"/>
  </g>
</svg>
